<svg width="336" height="125" viewBox="0 0 336 125" fill="none" xmlns="http://www.w3.org/2000/svg">
<path d="M182.364 32.9948H140.754V40.9118H157.398V93.8566H166.24V40.9118H182.364V32.9948Z" fill="url(#paint0_linear_313_1792)"/>
<path d="M241.66 32.9948H232.297V93.8566H241.66V32.9948Z" fill="url(#paint1_linear_313_1792)"/>
<path d="M261.425 32.9948H251.022V63.4257V93.8566H261.425V78.5174L263.506 76.0434L278.069 93.8566H291.072L271.308 71.0953L288.992 51.3028H277.029L261.425 69.6108V32.9948Z" fill="url(#paint2_linear_313_1792)"/>
<path fill-rule="evenodd" clip-rule="evenodd" d="M179.244 74.0641L208.891 32.9948H220.854V74.3558H227.096V82.4759H220.854V93.8566H210.972V82.4759H179.244V74.0641ZM210.972 43.8806L189.646 74.5589H210.972V43.8806Z" fill="url(#paint3_linear_313_1792)"/>
<path d="M182.364 32.9948H140.754V40.9118H157.398V93.8566H166.24V40.9118H182.364V32.9948Z" fill="url(#paint4_linear_313_1792)"/>
<path d="M241.66 32.9948H232.297V93.8566H241.66V32.9948Z" fill="url(#paint5_linear_313_1792)"/>
<path d="M261.425 32.9948H251.022V63.4257V93.8566H261.425V78.5174L263.506 76.0434L278.069 93.8566H291.072L271.308 71.0953L288.992 51.3028H277.029L261.425 69.6108V32.9948Z" fill="url(#paint6_linear_313_1792)"/>
<path fill-rule="evenodd" clip-rule="evenodd" d="M179.244 74.0641L208.891 32.9948H220.854V74.3558H227.096V82.4759H220.854V93.8566H210.972V82.4759H179.244V74.0641ZM210.972 43.8806L189.646 74.5589H210.972V43.8806Z" fill="url(#paint7_linear_313_1792)"/>
<path fill-rule="evenodd" clip-rule="evenodd" d="M16.1787 74.0641L45.826 32.9948H57.789V74.3558H64.0305V82.4759H57.789V93.8566H47.9066V82.4759H16.1787V74.0641ZM47.9066 43.8806L26.5813 74.5589H47.9066V43.8806Z" fill="url(#paint8_linear_313_1792)"/>
<path fill-rule="evenodd" clip-rule="evenodd" d="M102 93.8566H92.1176V71.0953H82.2351L68.7117 93.8566H57.789L71.3123 71.0953C66.8046 70.4355 57.789 65.5534 57.789 51.3028C57.789 37.0522 71.6591 32.8299 78.5942 32.5H102V93.8566ZM73.3817 40.9118C78.0629 38.9012 92.1176 40.9118 92.1176 40.9118V63.1783C92.1176 63.1783 79.6456 65.621 73.913 63.1783C68.1804 60.7355 67.1514 59.1208 67.1514 52.7872C67.1514 46.4536 68.7005 42.9223 73.3817 40.9118Z" fill="url(#paint9_linear_313_1792)"/>
<path fill-rule="evenodd" clip-rule="evenodd" d="M335.283 93.8566H325.401V71.0953H315.519L301.995 93.8566H291.072L304.596 71.0953C300.088 70.4355 291.072 65.5534 291.072 51.3028C291.072 37.0522 304.943 32.8299 311.878 32.5H335.283V93.8566ZM306.665 40.9118C311.346 38.9012 325.401 40.9118 325.401 40.9118V63.1783C325.401 63.1783 312.929 65.621 307.196 63.1783C301.464 60.7355 300.435 59.1208 300.435 52.7872C300.435 46.4536 301.984 42.9223 306.665 40.9118Z" fill="url(#paint10_linear_313_1792)"/>
<path d="M43.2998 115.58C40.7378 115.286 39.267 116.438 38.8519 117.052C31.1659 114.55 21.5346 105.463 17.6797 101.232C6.1507 89.1649 3.86149 70.8191 4.15802 63.1546C3.58868 61.8302 2.37885 61.6217 1.84511 61.683C1.26573 61.8669 0.0987614 62.4188 0.0659203 63.1546C-0.930417 81.108 9.61415 98.3501 15.011 104.727C19.7269 109.387 30.8484 119.149 37.6065 120.914C37.4286 122.079 38.0335 124.52 41.8765 124.961C45.7195 125.403 46.9175 121.957 47.0361 120.179C46.8582 118.768 45.8618 115.874 43.2998 115.58Z" fill="url(#paint11_linear_313_1792)"/>
<path d="M83.1533 0.244148C82.157 -0.197329 81.5521 0.305464 81.3742 0.612045C81.0895 1.34784 81.4928 1.77705 81.73 1.89968C145.78 31.1475 116.78 95.68 115.712 95.3121C114.645 94.9442 110.976 98.7058 114.645 100.128C117.491 101.232 117.788 97.369 117.491 95.8974C145.958 26.5488 84.3988 0.795994 83.1533 0.244148Z" fill="url(#paint12_linear_313_1792)"/>
<path d="M61.8033 120.73C60.2376 121.319 60.0834 122.447 60.202 122.938L61.8033 124.961C80.6625 123.858 118.381 109.289 118.381 59.8435C113.969 15.5486 80.0101 3.37121 63.5824 2.81938C63.5824 1.71568 62.6573 -0.38133 58.9566 0.0601466C54.3307 0.611993 54.3307 3.73912 54.3307 5.21071C54.3307 6.6823 55.7541 9.62548 58.9566 9.80943C61.5186 9.95658 63.108 8.15389 63.5824 7.23414C101.443 10.9131 113.043 43.8399 114.111 59.8435C112.866 119.995 63.7603 119.995 61.8033 120.73Z" fill="url(#paint13_linear_313_1792)"/>
<path d="M20.8822 33.5388C3.51751 57.2314 12.5794 82.4078 19.281 92.0344C25.0511 91.8901 23.539 97.1988 21.0602 97.9208C18.5813 98.6429 16.542 96.3426 18.0356 92.5863C11.2747 85.5962 1.66715 59.2916 19.1031 32.803C36.5389 6.31442 72.6562 12.3847 76.0366 15.1439C78.7409 17.3513 76.8076 17.0447 75.5028 16.6155C64.5313 12.3847 38.247 9.8462 20.8822 33.5388Z" fill="url(#paint14_linear_313_1792)"/>
<defs>
<linearGradient id="paint0_linear_313_1792" x1="-10.5" y1="63" x2="359.493" y2="64.6274" gradientUnits="userSpaceOnUse">
<stop stop-color="#5F5FFF"/>
<stop offset="0.37797" stop-color="#FF01AA"/>
<stop offset="0.58704" stop-color="#5F5FFF"/>
<stop offset="0.86187" stop-color="#FF01AA"/>
</linearGradient>
<linearGradient id="paint1_linear_313_1792" x1="-10.5" y1="63" x2="359.493" y2="64.6274" gradientUnits="userSpaceOnUse">
<stop stop-color="#5F5FFF"/>
<stop offset="0.37797" stop-color="#FF01AA"/>
<stop offset="0.58704" stop-color="#5F5FFF"/>
<stop offset="0.86187" stop-color="#FF01AA"/>
</linearGradient>
<linearGradient id="paint2_linear_313_1792" x1="-10.5" y1="63" x2="359.493" y2="64.6274" gradientUnits="userSpaceOnUse">
<stop stop-color="#5F5FFF"/>
<stop offset="0.37797" stop-color="#FF01AA"/>
<stop offset="0.58704" stop-color="#5F5FFF"/>
<stop offset="0.86187" stop-color="#FF01AA"/>
</linearGradient>
<linearGradient id="paint3_linear_313_1792" x1="-10.5" y1="63" x2="359.493" y2="64.6274" gradientUnits="userSpaceOnUse">
<stop stop-color="#5F5FFF"/>
<stop offset="0.37797" stop-color="#FF01AA"/>
<stop offset="0.58704" stop-color="#5F5FFF"/>
<stop offset="0.86187" stop-color="#FF01AA"/>
</linearGradient>
<linearGradient id="paint4_linear_313_1792" x1="-10.5" y1="63" x2="359.493" y2="64.6274" gradientUnits="userSpaceOnUse">
<stop stop-color="#5F5FFF"/>
<stop offset="0.37797" stop-color="#FF01AA"/>
<stop offset="0.58704" stop-color="#5F5FFF"/>
<stop offset="0.86187" stop-color="#FF01AA"/>
</linearGradient>
<linearGradient id="paint5_linear_313_1792" x1="-10.5" y1="63" x2="359.493" y2="64.6274" gradientUnits="userSpaceOnUse">
<stop stop-color="#5F5FFF"/>
<stop offset="0.37797" stop-color="#FF01AA"/>
<stop offset="0.58704" stop-color="#5F5FFF"/>
<stop offset="0.86187" stop-color="#FF01AA"/>
</linearGradient>
<linearGradient id="paint6_linear_313_1792" x1="-10.5" y1="63" x2="359.493" y2="64.6274" gradientUnits="userSpaceOnUse">
<stop stop-color="#5F5FFF"/>
<stop offset="0.37797" stop-color="#FF01AA"/>
<stop offset="0.58704" stop-color="#5F5FFF"/>
<stop offset="0.86187" stop-color="#FF01AA"/>
</linearGradient>
<linearGradient id="paint7_linear_313_1792" x1="-10.5" y1="63" x2="359.493" y2="64.6274" gradientUnits="userSpaceOnUse">
<stop stop-color="#5F5FFF"/>
<stop offset="0.37797" stop-color="#FF01AA"/>
<stop offset="0.58704" stop-color="#5F5FFF"/>
<stop offset="0.86187" stop-color="#FF01AA"/>
</linearGradient>
<linearGradient id="paint8_linear_313_1792" x1="-10.5" y1="63" x2="359.493" y2="64.6274" gradientUnits="userSpaceOnUse">
<stop stop-color="#5F5FFF"/>
<stop offset="0.37797" stop-color="#FF01AA"/>
<stop offset="0.58704" stop-color="#5F5FFF"/>
<stop offset="0.86187" stop-color="#FF01AA"/>
</linearGradient>
<linearGradient id="paint9_linear_313_1792" x1="-10.5" y1="63" x2="359.493" y2="64.6274" gradientUnits="userSpaceOnUse">
<stop stop-color="#5F5FFF"/>
<stop offset="0.37797" stop-color="#FF01AA"/>
<stop offset="0.58704" stop-color="#5F5FFF"/>
<stop offset="0.86187" stop-color="#FF01AA"/>
</linearGradient>
<linearGradient id="paint10_linear_313_1792" x1="-10.5" y1="63" x2="359.493" y2="64.6274" gradientUnits="userSpaceOnUse">
<stop stop-color="#5F5FFF"/>
<stop offset="0.37797" stop-color="#FF01AA"/>
<stop offset="0.58704" stop-color="#5F5FFF"/>
<stop offset="0.86187" stop-color="#FF01AA"/>
</linearGradient>
<linearGradient id="paint11_linear_313_1792" x1="62.5" y1="0.0703583" x2="62.5" y2="125" gradientUnits="userSpaceOnUse">
<stop stop-color="#5F5FFF"/>
<stop offset="0.38" stop-color="#FF01AA"/>
<stop offset="0.59" stop-color="#5F5FFF"/>
<stop offset="0.86" stop-color="#FF01AA"/>
</linearGradient>
<linearGradient id="paint12_linear_313_1792" x1="62.5" y1="0.0703583" x2="62.5" y2="125" gradientUnits="userSpaceOnUse">
<stop stop-color="#5F5FFF"/>
<stop offset="0.38" stop-color="#FF01AA"/>
<stop offset="0.59" stop-color="#5F5FFF"/>
<stop offset="0.86" stop-color="#FF01AA"/>
</linearGradient>
<linearGradient id="paint13_linear_313_1792" x1="86.3558" y1="0" x2="86.3558" y2="124.961" gradientUnits="userSpaceOnUse">
<stop stop-color="#5F5FFF"/>
<stop offset="0.36" stop-color="#FF01AA"/>
<stop offset="0.59" stop-color="#5F5FFF"/>
<stop offset="0.86" stop-color="#FF01AA"/>
</linearGradient>
<linearGradient id="paint14_linear_313_1792" x1="43.3156" y1="12.5317" x2="43.3156" y2="98.053" gradientUnits="userSpaceOnUse">
<stop stop-color="#5F5FFF"/>
<stop offset="0.38" stop-color="#FF01AA"/>
<stop offset="0.59" stop-color="#5F5FFF"/>
<stop offset="0.86" stop-color="#FF01AA"/>
</linearGradient>
</defs>
</svg>
